<svg width="17" height="16" viewBox="0 0 17 16" fill="none" xmlns="http://www.w3.org/2000/svg">

    <!--     icons for header-contacts-->
    <g id="whatsup">
            <path d="M17.0854 2.92468C16.164 1.99396 15.0665 1.25601 13.8569 0.75388C12.6473 0.251753 11.3499 -0.00450263 10.0402 5.9869e-05C4.55276 5.9869e-05 0.0804022 4.47242 0.0804022 9.95986C0.0804022 11.7187 0.542714 13.4272 1.40704 14.9347L0 20.1006L5.27638 18.7136C6.73367 19.5076 8.37186 19.9297 10.0402 19.9297C15.5276 19.9297 20 15.4573 20 9.96991C20 7.30659 18.9648 4.80408 17.0854 2.92468ZM10.0402 18.2413C8.55276 18.2413 7.09548 17.8393 5.81909 17.0855L5.51759 16.9046L2.38191 17.7287L3.21608 14.6734L3.01508 14.3619C2.18869 13.0422 1.74989 11.5169 1.74874 9.95986C1.74874 5.39704 5.46734 1.67845 10.0301 1.67845C12.2412 1.67845 14.3216 2.54277 15.8794 4.11061C16.6507 4.87842 17.262 5.79168 17.6778 6.79747C18.0936 7.80326 18.3056 8.88158 18.3015 9.96991C18.3216 14.5327 14.603 18.2413 10.0402 18.2413ZM14.5829 12.0503C14.3317 11.9297 13.1055 11.3267 12.8844 11.2362C12.6533 11.1558 12.4925 11.1156 12.3216 11.3568C12.1508 11.6081 11.6784 12.1709 11.5377 12.3317C11.397 12.5026 11.2462 12.5227 10.995 12.392C10.7437 12.2714 9.9397 12.0001 8.99497 11.1558C8.25126 10.4925 7.75879 9.67845 7.60804 9.4272C7.46734 9.17594 7.58794 9.04529 7.71859 8.91463C7.82914 8.80408 7.96985 8.62317 8.09045 8.48247C8.21105 8.34177 8.26131 8.23121 8.34171 8.07041C8.42211 7.89956 8.38191 7.75885 8.32161 7.63825C8.2613 7.51765 7.75879 6.29152 7.55779 5.789C7.35678 5.30659 7.14573 5.36689 6.99497 5.35684H6.51256C6.34171 5.35684 6.0804 5.41715 5.84925 5.6684C5.62814 5.91966 4.98492 6.52267 4.98492 7.7488C4.98492 8.97493 5.8794 10.1609 6 10.3217C6.1206 10.4925 7.75879 13.0051 10.2513 14.0805C10.8442 14.3418 11.3065 14.4925 11.6683 14.6031C12.2613 14.794 12.804 14.7639 13.2362 14.7036C13.7186 14.6332 14.7136 14.1006 14.9146 13.5176C15.1256 12.9347 15.1256 12.4423 15.0553 12.3317C14.9849 12.2212 14.8342 12.1709 14.5829 12.0503Z" fill="white"/>
    </g>
    <g id="tel">
            <path d="M16.5826 12.1547C15.61 12.0347 14.6441 11.8645 13.689 11.6449C13.4559 11.567 13.2065 11.5505 12.9651 11.5972C12.7237 11.6439 12.4985 11.7521 12.3111 11.9113C12.0677 12.1593 11.365 12.8529 10.6347 13.5694C8.01816 12.2831 5.90208 10.1654 4.61784 7.54793C5.32976 6.81764 5.99575 6.11951 6.26673 5.87608C6.42597 5.68875 6.53415 5.46349 6.58082 5.2221C6.62749 4.98071 6.61106 4.73136 6.53313 4.49817C6.31322 3.54157 6.14305 2.57421 6.0233 1.59999C6.01047 1.47593 5.97252 1.35578 5.91174 1.24687C5.85097 1.13795 5.76865 1.04256 5.66981 0.966493C5.57097 0.890428 5.45767 0.835287 5.33683 0.804432C5.21598 0.773578 5.09012 0.767655 4.96691 0.787025H1.05367C0.89214 0.801608 0.740934 0.872709 0.626673 0.987811C0.512411 1.10291 0.442419 1.25464 0.42902 1.41627C0.176405 4.94829 2.1468 8.72833 2.5464 9.45403V9.48159L2.60151 9.58723C4.03193 12.0681 6.09154 14.1277 8.57242 15.5581L8.77452 15.673C9.69312 16.1598 13.3446 17.997 16.7572 17.7444C16.9204 17.7331 17.0743 17.664 17.1913 17.5496C17.3083 17.4351 17.3807 17.2827 17.3956 17.1198V13.2111C17.415 13.0879 17.409 12.962 17.3782 12.8412C17.3473 12.7204 17.2922 12.6071 17.2161 12.5082C17.1401 12.4094 17.0447 12.3271 16.9358 12.2663C16.8268 12.2055 16.7067 12.1675 16.5826 12.1547Z" fill="white"/>
    </g>
    <g id="search">
            <path fill-rule="evenodd" clip-rule="evenodd" d="M3.55369 8.29062C3.55369 7.66856 3.67621 7.05259 3.91427 6.47788C4.15232 5.90317 4.50124 5.38097 4.9411 4.94111C5.38096 4.50125 5.90316 4.15233 6.47787 3.91428C7.05258 3.67622 7.66855 3.5537 8.29061 3.5537C8.91267 3.5537 9.52864 3.67622 10.1034 3.91428C10.6781 4.15233 11.2003 4.50125 11.6401 4.94111C12.08 5.38097 12.4289 5.90317 12.667 6.47788C12.905 7.05259 13.0275 7.66856 13.0275 8.29062C13.0275 9.54693 12.5285 10.7518 11.6401 11.6401C10.7518 12.5285 9.54692 13.0275 8.29061 13.0275C7.0343 13.0275 5.82945 12.5285 4.9411 11.6401C4.05276 10.7518 3.55369 9.54693 3.55369 8.29062ZM8.29061 0.395752C7.05953 0.395882 5.84555 0.683906 4.74563 1.23682C3.6457 1.78973 2.69032 2.59221 1.9558 3.58015C1.22128 4.56808 0.727975 5.71411 0.515289 6.92667C0.302604 8.13923 0.376433 9.38473 0.73088 10.5637C1.08533 11.7426 1.71057 12.8223 2.55666 13.7166C3.40275 14.6108 4.44624 15.2948 5.60378 15.7139C6.76132 16.133 8.00084 16.2756 9.2233 16.1303C10.4458 15.985 11.6173 15.5558 12.6444 14.877L17.7002 19.934C17.9964 20.2302 18.3982 20.3966 18.8171 20.3966C19.236 20.3966 19.6377 20.2302 19.934 19.934C20.2302 19.6378 20.3966 19.236 20.3966 18.8171C20.3966 18.3982 20.2302 17.9965 19.934 17.7002L14.877 12.6444C15.6637 11.4545 16.1132 10.0737 16.1779 8.64872C16.2426 7.22378 15.92 5.80792 15.2445 4.55162C14.5689 3.29532 13.5656 2.24551 12.3412 1.51376C11.1168 0.782008 9.71702 0.395652 8.29061 0.395752Z" fill="white"/>
    </g>

<!--    icons for footer contacts-->
    <g id="facebook">
        <path d="M11.8102 0.6698L9.95866 0.666748C7.87856 0.666748 6.5343 2.08347 6.5343 4.27623V5.94045H4.67269C4.51183 5.94045 4.38156 6.07442 4.38156 6.23966V8.65092C4.38156 8.81617 4.51198 8.94998 4.67269 8.94998H6.5343V15.0344C6.5343 15.1996 6.66457 15.3334 6.82543 15.3334H9.2543C9.41517 15.3334 9.54544 15.1994 9.54544 15.0344V8.94998H11.7221C11.883 8.94998 12.0132 8.81617 12.0132 8.65092L12.0141 6.23966C12.0141 6.16032 11.9834 6.08433 11.9289 6.02818C11.8743 5.97203 11.8001 5.94045 11.7228 5.94045H9.54544V4.52967C9.54544 3.8516 9.70274 3.50737 10.5626 3.50737L11.8099 3.50691C11.9706 3.50691 12.1009 3.37295 12.1009 3.20785V0.968861C12.1009 0.80392 11.9707 0.670105 11.8102 0.6698Z"
              fill="white"/>
    </g>
    <g id="instagram">
        <path d="M13.7552 4.25329C13.7239 3.54484 13.6094 3.05778 13.4452 2.63574C13.2759 2.18776 13.0155 1.78668 12.6742 1.45326C12.3408 1.11465 11.9371 0.851542 11.4943 0.684883C11.0698 0.520768 10.5853 0.406203 9.87685 0.374967C9.16311 0.341086 8.93652 0.333252 7.12627 0.333252C5.31603 0.333252 5.08944 0.341086 4.37834 0.372322C3.66989 0.403558 3.18284 0.518225 2.7609 0.682238C2.31282 0.851542 1.91174 1.11201 1.57832 1.45326C1.23971 1.78668 0.976704 2.19041 0.809944 2.6332C0.645829 3.05778 0.531264 3.54219 0.500028 4.25064C0.466147 4.96438 0.458313 5.19097 0.458313 7.00122C0.458313 8.81147 0.466147 9.03806 0.497383 9.74915C0.528619 10.4576 0.643285 10.9447 0.8074 11.3667C0.976704 11.8147 1.23971 12.2158 1.57832 12.5492C1.91174 12.8878 2.31546 13.1509 2.75826 13.3176C3.18284 13.4817 3.66725 13.5962 4.3758 13.6275C5.08679 13.6588 5.31348 13.6665 7.12373 13.6665C8.93398 13.6665 9.16056 13.6588 9.87166 13.6275C10.5801 13.5962 11.0672 13.4817 11.4891 13.3176C12.3852 12.9711 13.0936 12.2627 13.4401 11.3667C13.6041 10.9421 13.7187 10.4576 13.75 9.74915C13.7812 9.03806 13.789 8.81147 13.789 7.00122C13.789 5.19097 13.7864 4.96438 13.7552 4.25329ZM12.5545 9.69706C12.5258 10.3482 12.4164 10.6999 12.3252 10.9343C12.1012 11.5151 11.6402 11.9761 11.0593 12.2002C10.8249 12.2914 10.4707 12.4007 9.82211 12.4293C9.11885 12.4607 8.90793 12.4684 7.12892 12.4684C5.34991 12.4684 5.13634 12.4607 4.43563 12.4293C3.78446 12.4007 3.43283 12.2914 3.19841 12.2002C2.90935 12.0934 2.64624 11.9241 2.43267 11.7027C2.21128 11.4865 2.04197 11.226 1.93514 10.9369C1.84398 10.7025 1.7346 10.3482 1.70601 9.6997C1.67467 8.99644 1.66694 8.78542 1.66694 7.00641C1.66694 5.2274 1.67467 5.01383 1.70601 4.31322C1.7346 3.66205 1.84398 3.31042 1.93514 3.076C2.04197 2.78684 2.21128 2.52382 2.43532 2.31016C2.65143 2.08876 2.91189 1.91946 3.20105 1.81273C3.43547 1.72156 3.78975 1.61219 4.43827 1.5835C5.14153 1.55226 5.35255 1.54443 7.13146 1.54443C8.91312 1.54443 9.12404 1.55226 9.82475 1.5835C10.4759 1.61219 10.8276 1.72156 11.062 1.81273C11.351 1.91946 11.6141 2.08876 11.8277 2.31016C12.0491 2.52637 12.2184 2.78684 12.3252 3.076C12.4164 3.31042 12.5258 3.66459 12.5545 4.31322C12.5857 5.01648 12.5935 5.2274 12.5935 7.00641C12.5935 8.78542 12.5857 8.9938 12.5545 9.69706Z"
              fill="white"/>
        <path d="M7.12627 3.57607C5.23534 3.57607 3.70112 5.11019 3.70112 7.00123C3.70112 8.89226 5.23534 10.4264 7.12627 10.4264C9.01731 10.4264 10.5514 8.89226 10.5514 7.00123C10.5514 5.11019 9.01731 3.57607 7.12627 3.57607ZM7.12627 9.22304C5.89953 9.22304 4.90446 8.22807 4.90446 7.00123C4.90446 5.77438 5.89953 4.77941 7.12627 4.77941C8.35311 4.77941 9.34808 5.77438 9.34808 7.00123C9.34808 8.22807 8.35311 9.22304 7.12627 9.22304Z"
              fill="white"/>
        <path d="M11.4866 3.44065C11.4866 3.88223 11.1285 4.24027 10.6869 4.24027C10.2453 4.24027 9.88724 3.88223 9.88724 3.44065C9.88724 2.99898 10.2453 2.64103 10.6869 2.64103C11.1285 2.64103 11.4866 2.99898 11.4866 3.44065Z"
              fill="white"/>

    </g>
    <g id="twitter">
        <path d="M14.1016 1.84839C13.5863 2.06701 13.0334 2.21528 12.4525 2.28147C13.0456 1.94137 13.4997 1.40192 13.7149 0.761093C13.1585 1.07605 12.5443 1.30475 11.8899 1.42873C11.3659 0.893459 10.6206 0.560059 9.79383 0.560059C8.20776 0.560059 6.92175 1.79143 6.92175 3.30929C6.92175 3.52457 6.94712 3.73482 6.99612 3.93588C4.60957 3.8211 2.49335 2.72627 1.07699 1.06265C0.829404 1.46809 0.688557 1.94051 0.688557 2.44481C0.688557 3.39892 1.19597 4.24078 1.96583 4.73332C1.49516 4.71825 1.05249 4.59427 0.664949 4.3882V4.42254C0.664949 5.75444 1.65527 6.86602 2.96839 7.11901C2.7278 7.181 2.47411 7.21534 2.21165 7.21534C2.0262 7.21534 1.84685 7.19775 1.67101 7.16424C2.03668 8.2574 3.097 9.05234 4.35327 9.07414C3.37082 9.81129 2.13205 10.2494 0.786557 10.2494C0.554733 10.2494 0.326386 10.236 0.101562 10.2117C1.37271 10.9933 2.8818 11.4489 4.50375 11.4489C9.78688 11.4489 12.6747 7.25891 12.6747 3.62511L12.6651 3.2691C13.2294 2.88374 13.7175 2.39958 14.1016 1.84839Z"
              fill="white"/>
    </g>
    <g id="pinterest">
        <path d="M6.3025 0.666748C2.25367 0.667359 0.101562 3.24323 0.101562 6.05194C0.101562 7.35423 0.834523 8.9792 2.00812 9.49437C2.34291 9.6441 2.2986 9.46137 2.58661 8.36747C2.60938 8.27641 2.59769 8.19758 2.52384 8.11263C0.846216 6.18577 2.19644 2.22449 6.0631 2.22449C11.6591 2.22449 10.6135 9.9136 7.03669 9.9136C6.11479 9.9136 5.42799 9.19492 5.64523 8.30575C5.90863 7.24667 6.42435 6.10816 6.42435 5.34487C6.42435 3.42106 3.53805 3.70646 3.53805 6.25544C3.53805 7.04317 3.81868 7.57485 3.81868 7.57485C3.81868 7.57485 2.89001 11.3002 2.7177 11.9963C2.42599 13.1745 2.75708 15.0818 2.78601 15.2462C2.80385 15.3367 2.90601 15.3654 2.96325 15.2908C3.05494 15.1717 4.17746 13.5815 4.49194 12.432C4.60641 12.0134 5.07597 10.3145 5.07597 10.3145C5.38553 10.8694 6.27788 11.3338 7.2287 11.3338C10.0571 11.3338 12.1016 8.86492 12.1016 5.80138C12.0917 2.86433 9.56051 0.666748 6.3025 0.666748V0.666748Z"
              fill="white"/>

    </g>
    <g id="youtube">
        <path fill-rule="evenodd" clip-rule="evenodd"
              d="M14.3618 2.74255C15.0471 2.92712 15.5875 3.4674 15.7719 4.15282C16.1147 5.40477 16.1015 8.01438 16.1015 8.01438C16.1015 8.01438 16.1015 10.6107 15.772 11.8627C15.5875 12.548 15.0472 13.0884 14.3618 13.2729C13.1097 13.6025 8.10153 13.6025 8.10153 13.6025C8.10153 13.6025 3.10643 13.6025 1.8413 13.2598C1.15588 13.0753 0.615598 12.5349 0.431029 11.8496C0.101562 10.6107 0.101562 8.00119 0.101562 8.00119C0.101562 8.00119 0.101562 5.40477 0.431029 4.15282C0.615476 3.46752 1.16906 2.91394 1.84118 2.72949C3.09325 2.3999 8.10141 2.3999 8.10141 2.3999C8.10141 2.3999 13.1097 2.3999 14.3618 2.74255ZM10.6715 8.00121L6.50681 10.3999V5.60253L10.6715 8.00121Z"
              fill="white"/>
    </g>

<!--    icons arrow-->
    <g id="arrow-main">
        <g clip-path="url(#clip0_4_43290)">
            <path d="M13.1302 7.8495L5.71334 0.432762C5.5418 0.261083 5.3128 0.166504 5.06863 0.166504C4.82446 0.166504 4.59547 0.261083 4.42392 0.432762L3.87772 0.978828C3.5223 1.33465 3.5223 1.91297 3.87772 2.26825L10.1059 8.49638L3.87081 14.7314C3.69927 14.9031 3.60455 15.132 3.60455 15.376C3.60455 15.6203 3.69927 15.8492 3.87081 16.021L4.41701 16.5669C4.58869 16.7386 4.81755 16.8332 5.06172 16.8332C5.30589 16.8332 5.53489 16.7386 5.70643 16.5669L13.1302 9.1434C13.3022 8.97118 13.3966 8.74123 13.3961 8.49679C13.3966 8.2514 13.3022 8.02159 13.1302 7.8495Z"
                  fill="white"/>
        </g>
        <defs>
            <clipPath id="clip0_4_43290">
                <rect width="16.6667" height="16.6667" fill="white" transform="translate(0.166992 0.166504)"/>
            </clipPath>
        </defs>
    </g>
    <g id="arrow-result">
            <path d="M7.69747 8.97792L13.8401 2.66154C13.9823 2.51544 14.0591 2.322 14.0562 2.11691C14.0533 1.91183 13.9712 1.7206 13.825 1.57853L13.36 1.12615C13.057 0.831798 12.5712 0.838567 12.277 1.14125L7.11874 6.44527L1.80883 1.28132C1.66263 1.13925 1.4693 1.06238 1.26433 1.06523C1.05913 1.06809 0.868012 1.15032 0.725711 1.29642L0.273567 1.76157C0.13138 1.90778 0.0546198 2.10111 0.0574778 2.30619C0.0603358 2.51128 0.142455 2.70251 0.288659 2.84458L6.6107 8.99306C6.75737 9.13547 6.95161 9.21211 7.15691 9.20879C7.36303 9.20637 7.55494 9.12436 7.69747 8.97792Z" fill="#28553F"/>
    </g>
    <g id="arrow-see-all">
            <path d="M35.3536 4.85355C35.5488 4.65829 35.5488 4.34171 35.3536 4.14645L32.1716 0.964466C31.9763 0.769204 31.6597 0.769204 31.4645 0.964466C31.2692 1.15973 31.2692 1.47631 31.4645 1.67157L34.2929 4.5L31.4645 7.32843C31.2692 7.52369 31.2692 7.84027 31.4645 8.03553C31.6597 8.2308 31.9763 8.2308 32.1716 8.03553L35.3536 4.85355ZM0 5L35 5V4L0 4L0 5Z" fill="#282A30"/>
    </g>
    <g id="arrow-up-footer">
            <path fill-rule="evenodd" clip-rule="evenodd" d="M0.810798 8.71124C0.337412 8.23068 0.32935 7.4425 0.792791 6.9508L6.13301 1.28493C6.59645 0.793227 7.35589 0.7842 7.82928 1.26477L13.2841 6.80233C13.7575 7.28289 13.7655 8.07107 13.3021 8.56277C12.8387 9.05448 12.0792 9.0635 11.6058 8.58294L8.22034 5.14609L8.39333 22.058C8.40036 22.7455 7.86905 23.3092 7.20661 23.3171C6.54417 23.325 6.00146 22.774 5.99443 22.0865L5.82144 5.1746L2.50707 8.69108C2.04363 9.18278 1.28418 9.19181 0.810798 8.71124Z" fill="white"/>
    </g>
</svg>
