<svg height="48pt" viewBox="0 0 48 48" width="48pt" xmlns="http://www.w3.org/2000/svg" xmlns:xlink="http://www.w3.org/1999/xlink"><linearGradient id="a" gradientTransform="matrix(35.6 0 0 45.518 6.2 1.241)" gradientUnits="userSpaceOnUse" x1=".495631" x2=".528519" y1=".201838" y2=".999215"><stop offset=".02608695652" stop-color="#b3ffab"/><stop offset=".98695652174" stop-color="#12fff7"/></linearGradient><path d="m22.5 25.298v-3.655l-5.795-2.664c-1.003-.46-1.533-1.453-1.183-2.215.35-.762 1.448-1.007 2.451-.546l4.527 2.08v-.863c0-1.104.672-2 1.5-2 .828 0 1.5.896 1.5 2v4.27l4.535-2.084c1.003-.461 2.102-.217 2.452.545.35.762-.18 1.755-1.183 2.216l-5.804 2.667v18.71h6.359c1.104 0 2 .672 2 1.5 0 .828-.896 1.5-2 1.5h-15.718c-1.104 0-2-.672-2-1.5 0-.828.896-1.5 2-1.5h6.359v-15.116l-5.683-2.612c-1.003-.461-1.533-1.453-1.183-2.215.351-.762 1.449-1.007 2.452-.546zm10.598-13.949-.014.004-.307-1.112c-.537-1.918-1.711-3.606-3.33-4.772-1.741-1.266-3.836-1.942-5.984-1.926-2.233-.016-4.412.721-6.184 2.079-1.657 1.266-2.808 3.077-3.238 5.11l-.284 1.128-.966.713c-1.305.867-2.371 2.041-3.1 3.422-.783 1.481-1.189 3.13-1.189 4.811-.016 2.332.79 4.595 2.263 6.406.691.836 1.527 1.542 2.463 2.079.928.537 1.956.89 3.023 1.028.627.085 1.067.666.982 1.297-.085.631-.662 1.074-1.289.99-1.366-.184-2.678-.629-3.867-1.32-1.181-.675-2.225-1.565-3.092-2.616-1.81-2.218-2.8-5.003-2.785-7.872 0-2.049.499-4.066 1.458-5.877.913-1.726 2.24-3.192 3.867-4.266l.205-.136.056-.263c.552-2.57 2.002-4.864 4.089-6.46 2.179-1.673 4.849-2.57 7.588-2.555 2.639-.015 5.202.813 7.335 2.363 2.041 1.473 3.521 3.598 4.196 6.023l.069.246.047.022c1.994.944 3.675 2.448 4.833 4.335 1.22 1.972 1.865 4.251 1.857 6.568.015 2.869-.975 5.654-2.785 7.872-.867 1.051-1.911 1.941-3.092 2.616-1.189.691-2.501 1.136-3.867 1.32-.796.084-1.442-.359-1.442-.99 0-.631.508-1.212 1.135-1.297 1.067-.138 2.095-.491 3.023-1.028.936-.537 1.772-1.243 2.463-2.079 1.473-1.811 2.279-4.074 2.263-6.406.008-1.895-.522-3.76-1.519-5.371-.921-1.504-2.256-2.708-3.851-3.46l-1.044-.599z" fill="url(#a)" fill-rule="evenodd"/></svg>